<?xml version="1.0" encoding="UTF-8"?>
<svg xmlns="http://www.w3.org/2000/svg" xmlns:xlink="http://www.w3.org/1999/xlink" width="16px" height="16px" viewBox="0 0 16 16" version="1.1">
<g id="surface1">
<path style=" stroke:none;fill-rule:nonzero;fill:rgb(0%,0%,0%);fill-opacity:1;" d="M 6.679688 2.359375 C 4.816406 2.863281 3.449219 4.296875 2.863281 6.359375 C 2.609375 7.265625 2.609375 8.65625 2.863281 9.558594 C 3.640625 12.289062 5.96875 14.023438 8.398438 13.679688 C 9.664062 13.503906 10.558594 13.054688 11.007812 12.382812 L 11.265625 12.007812 L 11.296875 12.617188 C 11.320312 13.175781 11.34375 13.230469 11.585938 13.449219 C 12.070312 13.886719 12.777344 13.6875 12.960938 13.054688 C 13.015625 12.863281 13.039062 11.886719 13.023438 10.222656 C 13 7.800781 12.992188 7.679688 12.832031 7.464844 C 12.527344 7.0625 12.414062 7.046875 8.296875 7.046875 L 4.464844 7.039062 L 4.519531 6.777344 C 4.632812 6.246094 5.113281 5.382812 5.542969 4.953125 C 7.183594 3.289062 9.601562 3.726562 10.734375 5.886719 C 11.113281 6.609375 11.488281 6.792969 12.03125 6.542969 C 12.894531 6.152344 12.457031 4.808594 11.046875 3.503906 C 10.449219 2.945312 9.753906 2.558594 9 2.359375 C 8.425781 2.214844 7.230469 2.207031 6.679688 2.359375 Z M 11.28125 10.175781 C 11.273438 11.328125 11.257812 11.527344 11.175781 11.375 C 10.976562 11.023438 10.527344 10.839844 10.167969 10.96875 C 10.054688 11.015625 9.855469 11.152344 9.71875 11.28125 C 9.105469 11.871094 7.984375 12.128906 7.070312 11.878906 C 5.847656 11.550781 4.753906 10.351562 4.519531 9.089844 L 4.464844 8.800781 L 11.28125 8.800781 Z M 11.28125 10.175781 "/>
</g>
</svg>
